<mxfile host="app.diagrams.net" agent="Mozilla/5.0 (Windows NT 10.0; Win64; x64) AppleWebKit/537.36 (KHTML, like Gecko) Chrome/140.0.0.0 Safari/537.36" version="28.2.4">
  <diagram name="PÃ¡gina-1" id="KvQQW-qmofQ9Go-xhEcm">
    <mxGraphModel dx="2521" dy="2173" grid="1" gridSize="10" guides="1" tooltips="1" connect="1" arrows="1" fold="1" page="1" pageScale="1" pageWidth="827" pageHeight="1169" math="0" shadow="0">
      <root>
        <mxCell id="0" />
        <mxCell id="1" parent="0" />
        <mxCell id="59IRY9et53XvcOAsyTQL-16" style="edgeStyle=none;shape=connector;rounded=0;orthogonalLoop=1;jettySize=auto;html=1;entryX=0.5;entryY=1;entryDx=0;entryDy=0;strokeColor=default;align=center;verticalAlign=middle;fontFamily=Helvetica;fontSize=11;fontColor=default;labelBackgroundColor=default;endArrow=none;endFill=0;" parent="1" source="59IRY9et53XvcOAsyTQL-1" target="59IRY9et53XvcOAsyTQL-8" edge="1">
          <mxGeometry relative="1" as="geometry" />
        </mxCell>
        <mxCell id="59IRY9et53XvcOAsyTQL-17" style="edgeStyle=none;shape=connector;rounded=0;orthogonalLoop=1;jettySize=auto;html=1;strokeColor=default;align=center;verticalAlign=middle;fontFamily=Helvetica;fontSize=11;fontColor=default;labelBackgroundColor=default;endArrow=none;endFill=0;" parent="1" source="59IRY9et53XvcOAsyTQL-1" target="59IRY9et53XvcOAsyTQL-14" edge="1">
          <mxGeometry relative="1" as="geometry" />
        </mxCell>
        <mxCell id="59IRY9et53XvcOAsyTQL-55" style="edgeStyle=orthogonalEdgeStyle;shape=connector;rounded=0;orthogonalLoop=1;jettySize=auto;html=1;entryX=0.5;entryY=0;entryDx=0;entryDy=0;strokeColor=default;align=center;verticalAlign=middle;fontFamily=Helvetica;fontSize=11;fontColor=default;labelBackgroundColor=default;endArrow=none;endFill=0;" parent="1" source="59IRY9et53XvcOAsyTQL-1" target="59IRY9et53XvcOAsyTQL-53" edge="1">
          <mxGeometry relative="1" as="geometry" />
        </mxCell>
        <mxCell id="5yBy5ubpR-fuYYYy7FqI-9" value="M" style="edgeLabel;html=1;align=center;verticalAlign=middle;resizable=0;points=[];fontFamily=Helvetica;fontSize=11;fontColor=default;labelBackgroundColor=default;" vertex="1" connectable="0" parent="59IRY9et53XvcOAsyTQL-55">
          <mxGeometry x="-0.5684" y="1" relative="1" as="geometry">
            <mxPoint x="1" y="9" as="offset" />
          </mxGeometry>
        </mxCell>
        <mxCell id="59IRY9et53XvcOAsyTQL-1" value="&lt;span id=&quot;docs-internal-guid-33096cff-7fff-1624-d301-5211b1fea0e3&quot;&gt;&lt;span style=&quot;font-size: 12pt; font-family: Calibri, sans-serif; background-color: transparent; font-variant-numeric: normal; font-variant-east-asian: normal; font-variant-alternates: normal; font-variant-position: normal; font-variant-emoji: normal; vertical-align: baseline; white-space-collapse: preserve;&quot;&gt;BANCO&lt;/span&gt;&lt;/span&gt;" style="whiteSpace=wrap;html=1;align=center;" parent="1" vertex="1">
          <mxGeometry x="260" y="190" width="100" height="40" as="geometry" />
        </mxCell>
        <mxCell id="59IRY9et53XvcOAsyTQL-31" style="edgeStyle=none;shape=connector;rounded=0;orthogonalLoop=1;jettySize=auto;html=1;strokeColor=default;align=center;verticalAlign=middle;fontFamily=Helvetica;fontSize=11;fontColor=default;labelBackgroundColor=default;endArrow=none;endFill=0;" parent="1" source="59IRY9et53XvcOAsyTQL-2" target="59IRY9et53XvcOAsyTQL-26" edge="1">
          <mxGeometry relative="1" as="geometry" />
        </mxCell>
        <mxCell id="59IRY9et53XvcOAsyTQL-33" style="edgeStyle=none;shape=connector;rounded=0;orthogonalLoop=1;jettySize=auto;html=1;entryX=1;entryY=0.5;entryDx=0;entryDy=0;strokeColor=default;align=center;verticalAlign=middle;fontFamily=Helvetica;fontSize=11;fontColor=default;labelBackgroundColor=default;endArrow=none;endFill=0;" parent="1" source="59IRY9et53XvcOAsyTQL-2" target="59IRY9et53XvcOAsyTQL-28" edge="1">
          <mxGeometry relative="1" as="geometry" />
        </mxCell>
        <mxCell id="59IRY9et53XvcOAsyTQL-34" style="edgeStyle=none;shape=connector;rounded=0;orthogonalLoop=1;jettySize=auto;html=1;entryX=1;entryY=0.5;entryDx=0;entryDy=0;strokeColor=default;align=center;verticalAlign=middle;fontFamily=Helvetica;fontSize=11;fontColor=default;labelBackgroundColor=default;endArrow=none;endFill=0;" parent="1" source="59IRY9et53XvcOAsyTQL-2" target="59IRY9et53XvcOAsyTQL-29" edge="1">
          <mxGeometry relative="1" as="geometry" />
        </mxCell>
        <mxCell id="59IRY9et53XvcOAsyTQL-35" style="edgeStyle=none;shape=connector;rounded=0;orthogonalLoop=1;jettySize=auto;html=1;strokeColor=default;align=center;verticalAlign=middle;fontFamily=Helvetica;fontSize=11;fontColor=default;labelBackgroundColor=default;endArrow=none;endFill=0;" parent="1" source="59IRY9et53XvcOAsyTQL-2" target="59IRY9et53XvcOAsyTQL-30" edge="1">
          <mxGeometry relative="1" as="geometry" />
        </mxCell>
        <mxCell id="59IRY9et53XvcOAsyTQL-54" style="edgeStyle=orthogonalEdgeStyle;shape=link;rounded=0;orthogonalLoop=1;jettySize=auto;html=1;entryX=0.5;entryY=1;entryDx=0;entryDy=0;strokeColor=default;align=center;verticalAlign=middle;fontFamily=Helvetica;fontSize=11;fontColor=default;labelBackgroundColor=default;endArrow=none;endFill=0;" parent="1" source="59IRY9et53XvcOAsyTQL-2" target="59IRY9et53XvcOAsyTQL-53" edge="1">
          <mxGeometry relative="1" as="geometry" />
        </mxCell>
        <mxCell id="5yBy5ubpR-fuYYYy7FqI-10" value="N" style="edgeLabel;html=1;align=center;verticalAlign=middle;resizable=0;points=[];fontFamily=Helvetica;fontSize=11;fontColor=default;labelBackgroundColor=default;" vertex="1" connectable="0" parent="59IRY9et53XvcOAsyTQL-54">
          <mxGeometry x="0.0824" y="2" relative="1" as="geometry">
            <mxPoint x="-2" y="12" as="offset" />
          </mxGeometry>
        </mxCell>
        <mxCell id="5yBy5ubpR-fuYYYy7FqI-5" style="edgeStyle=orthogonalEdgeStyle;shape=link;rounded=0;orthogonalLoop=1;jettySize=auto;html=1;entryX=0.487;entryY=0.083;entryDx=0;entryDy=0;strokeColor=default;align=center;verticalAlign=middle;fontFamily=Helvetica;fontSize=11;fontColor=default;labelBackgroundColor=default;endArrow=none;endFill=0;entryPerimeter=0;" edge="1" parent="1" source="59IRY9et53XvcOAsyTQL-2" target="5yBy5ubpR-fuYYYy7FqI-1">
          <mxGeometry relative="1" as="geometry">
            <mxPoint y="440" as="sourcePoint" />
            <mxPoint x="120" y="540" as="targetPoint" />
            <Array as="points">
              <mxPoint y="490" />
              <mxPoint x="120" y="490" />
              <mxPoint x="120" y="545" />
            </Array>
          </mxGeometry>
        </mxCell>
        <mxCell id="5yBy5ubpR-fuYYYy7FqI-11" value="M" style="edgeLabel;html=1;align=center;verticalAlign=middle;resizable=0;points=[];fontFamily=Helvetica;fontSize=11;fontColor=default;labelBackgroundColor=default;" vertex="1" connectable="0" parent="5yBy5ubpR-fuYYYy7FqI-5">
          <mxGeometry x="-0.0545" y="4" relative="1" as="geometry">
            <mxPoint x="-4" y="-6" as="offset" />
          </mxGeometry>
        </mxCell>
        <mxCell id="59IRY9et53XvcOAsyTQL-2" value="&lt;span id=&quot;docs-internal-guid-d53b8ac3-7fff-3ef5-c0f0-8ff0012dd7bf&quot;&gt;&lt;span style=&quot;font-size: 12pt; font-family: Calibri, sans-serif; background-color: transparent; font-variant-numeric: normal; font-variant-east-asian: normal; font-variant-alternates: normal; font-variant-position: normal; font-variant-emoji: normal; vertical-align: baseline; white-space-collapse: preserve;&quot;&gt;CLIENTE&lt;/span&gt;&lt;/span&gt;" style="whiteSpace=wrap;html=1;align=center;" parent="1" vertex="1">
          <mxGeometry x="-50" y="400" width="100" height="40" as="geometry" />
        </mxCell>
        <mxCell id="59IRY9et53XvcOAsyTQL-41" style="edgeStyle=none;shape=connector;rounded=0;orthogonalLoop=1;jettySize=auto;html=1;entryX=0;entryY=1;entryDx=0;entryDy=0;strokeColor=default;align=center;verticalAlign=middle;fontFamily=Helvetica;fontSize=11;fontColor=default;labelBackgroundColor=default;endArrow=none;endFill=0;" parent="1" source="59IRY9et53XvcOAsyTQL-3" target="59IRY9et53XvcOAsyTQL-37" edge="1">
          <mxGeometry relative="1" as="geometry" />
        </mxCell>
        <mxCell id="59IRY9et53XvcOAsyTQL-42" style="edgeStyle=none;shape=connector;rounded=0;orthogonalLoop=1;jettySize=auto;html=1;strokeColor=default;align=center;verticalAlign=middle;fontFamily=Helvetica;fontSize=11;fontColor=default;labelBackgroundColor=default;endArrow=none;endFill=0;" parent="1" source="59IRY9et53XvcOAsyTQL-3" target="59IRY9et53XvcOAsyTQL-38" edge="1">
          <mxGeometry relative="1" as="geometry" />
        </mxCell>
        <mxCell id="59IRY9et53XvcOAsyTQL-43" style="edgeStyle=none;shape=connector;rounded=0;orthogonalLoop=1;jettySize=auto;html=1;strokeColor=default;align=center;verticalAlign=middle;fontFamily=Helvetica;fontSize=11;fontColor=default;labelBackgroundColor=default;endArrow=none;endFill=0;" parent="1" source="59IRY9et53XvcOAsyTQL-3" target="59IRY9et53XvcOAsyTQL-39" edge="1">
          <mxGeometry relative="1" as="geometry" />
        </mxCell>
        <mxCell id="5yBy5ubpR-fuYYYy7FqI-2" style="shape=connector;rounded=0;orthogonalLoop=1;jettySize=auto;html=1;entryX=1;entryY=0;entryDx=0;entryDy=0;strokeColor=default;align=center;verticalAlign=middle;fontFamily=Helvetica;fontSize=11;fontColor=default;labelBackgroundColor=default;endArrow=none;endFill=0;" edge="1" parent="1" source="59IRY9et53XvcOAsyTQL-3" target="59IRY9et53XvcOAsyTQL-36">
          <mxGeometry relative="1" as="geometry" />
        </mxCell>
        <mxCell id="5yBy5ubpR-fuYYYy7FqI-4" style="edgeStyle=orthogonalEdgeStyle;shape=link;rounded=0;orthogonalLoop=1;jettySize=auto;html=1;entryX=0.5;entryY=1;entryDx=0;entryDy=0;strokeColor=default;align=center;verticalAlign=middle;fontFamily=Helvetica;fontSize=11;fontColor=default;labelBackgroundColor=default;endArrow=none;endFill=0;" edge="1" parent="1" source="59IRY9et53XvcOAsyTQL-3" target="5yBy5ubpR-fuYYYy7FqI-1">
          <mxGeometry relative="1" as="geometry" />
        </mxCell>
        <mxCell id="5yBy5ubpR-fuYYYy7FqI-12" value="N" style="edgeLabel;html=1;align=center;verticalAlign=middle;resizable=0;points=[];fontFamily=Helvetica;fontSize=11;fontColor=default;labelBackgroundColor=default;" vertex="1" connectable="0" parent="5yBy5ubpR-fuYYYy7FqI-4">
          <mxGeometry x="-0.2785" relative="1" as="geometry">
            <mxPoint y="10" as="offset" />
          </mxGeometry>
        </mxCell>
        <mxCell id="5yBy5ubpR-fuYYYy7FqI-8" style="edgeStyle=orthogonalEdgeStyle;shape=connector;rounded=0;orthogonalLoop=1;jettySize=auto;html=1;entryX=0.5;entryY=1;entryDx=0;entryDy=0;strokeColor=default;align=center;verticalAlign=middle;fontFamily=Helvetica;fontSize=11;fontColor=default;labelBackgroundColor=default;endArrow=none;endFill=0;" edge="1" parent="1" source="59IRY9et53XvcOAsyTQL-3" target="5yBy5ubpR-fuYYYy7FqI-6">
          <mxGeometry relative="1" as="geometry" />
        </mxCell>
        <mxCell id="5yBy5ubpR-fuYYYy7FqI-13" value="1" style="edgeLabel;html=1;align=center;verticalAlign=middle;resizable=0;points=[];fontFamily=Helvetica;fontSize=11;fontColor=default;labelBackgroundColor=default;" vertex="1" connectable="0" parent="5yBy5ubpR-fuYYYy7FqI-8">
          <mxGeometry x="-0.3579" y="2" relative="1" as="geometry">
            <mxPoint x="4" y="12" as="offset" />
          </mxGeometry>
        </mxCell>
        <mxCell id="59IRY9et53XvcOAsyTQL-3" value="&lt;span id=&quot;docs-internal-guid-18938c07-7fff-5e12-0bd6-c497b2bd1e35&quot;&gt;&lt;span style=&quot;font-size: 12pt; font-family: Calibri, sans-serif; background-color: transparent; font-variant-numeric: normal; font-variant-east-asian: normal; font-variant-alternates: normal; font-variant-position: normal; font-variant-emoji: normal; vertical-align: baseline; white-space-collapse: preserve;&quot;&gt;CONTA&lt;/span&gt;&lt;/span&gt;" style="whiteSpace=wrap;html=1;align=center;" parent="1" vertex="1">
          <mxGeometry x="279" y="640" width="100" height="40" as="geometry" />
        </mxCell>
        <mxCell id="59IRY9et53XvcOAsyTQL-49" style="edgeStyle=none;shape=connector;rounded=0;orthogonalLoop=1;jettySize=auto;html=1;entryX=1;entryY=0;entryDx=0;entryDy=0;strokeColor=default;align=center;verticalAlign=middle;fontFamily=Helvetica;fontSize=11;fontColor=default;labelBackgroundColor=default;endArrow=none;endFill=0;" parent="1" source="59IRY9et53XvcOAsyTQL-4" target="59IRY9et53XvcOAsyTQL-45" edge="1">
          <mxGeometry relative="1" as="geometry" />
        </mxCell>
        <mxCell id="59IRY9et53XvcOAsyTQL-50" style="edgeStyle=none;shape=connector;rounded=0;orthogonalLoop=1;jettySize=auto;html=1;strokeColor=default;align=center;verticalAlign=middle;fontFamily=Helvetica;fontSize=11;fontColor=default;labelBackgroundColor=default;endArrow=none;endFill=0;" parent="1" source="59IRY9et53XvcOAsyTQL-4" target="59IRY9et53XvcOAsyTQL-46" edge="1">
          <mxGeometry relative="1" as="geometry" />
        </mxCell>
        <mxCell id="59IRY9et53XvcOAsyTQL-51" style="edgeStyle=none;shape=connector;rounded=0;orthogonalLoop=1;jettySize=auto;html=1;strokeColor=default;align=center;verticalAlign=middle;fontFamily=Helvetica;fontSize=11;fontColor=default;labelBackgroundColor=default;endArrow=none;endFill=0;" parent="1" source="59IRY9et53XvcOAsyTQL-4" target="59IRY9et53XvcOAsyTQL-47" edge="1">
          <mxGeometry relative="1" as="geometry" />
        </mxCell>
        <mxCell id="59IRY9et53XvcOAsyTQL-52" style="edgeStyle=none;shape=connector;rounded=0;orthogonalLoop=1;jettySize=auto;html=1;strokeColor=default;align=center;verticalAlign=middle;fontFamily=Helvetica;fontSize=11;fontColor=default;labelBackgroundColor=default;endArrow=none;endFill=0;" parent="1" source="59IRY9et53XvcOAsyTQL-4" target="59IRY9et53XvcOAsyTQL-48" edge="1">
          <mxGeometry relative="1" as="geometry" />
        </mxCell>
        <mxCell id="5yBy5ubpR-fuYYYy7FqI-7" style="edgeStyle=orthogonalEdgeStyle;shape=link;rounded=0;orthogonalLoop=1;jettySize=auto;html=1;entryX=0.5;entryY=0;entryDx=0;entryDy=0;strokeColor=default;align=center;verticalAlign=middle;fontFamily=Helvetica;fontSize=11;fontColor=default;labelBackgroundColor=default;endArrow=none;endFill=0;" edge="1" parent="1" source="59IRY9et53XvcOAsyTQL-4" target="5yBy5ubpR-fuYYYy7FqI-6">
          <mxGeometry relative="1" as="geometry" />
        </mxCell>
        <mxCell id="5yBy5ubpR-fuYYYy7FqI-14" value="N" style="edgeLabel;html=1;align=center;verticalAlign=middle;resizable=0;points=[];fontFamily=Helvetica;fontSize=11;fontColor=default;labelBackgroundColor=default;" vertex="1" connectable="0" parent="5yBy5ubpR-fuYYYy7FqI-7">
          <mxGeometry x="-0.513" y="-3" relative="1" as="geometry">
            <mxPoint x="13" as="offset" />
          </mxGeometry>
        </mxCell>
        <mxCell id="59IRY9et53XvcOAsyTQL-4" value="&lt;span id=&quot;docs-internal-guid-aa84f5fb-7fff-a301-6913-3b34de1e5d51&quot;&gt;&lt;span style=&quot;font-size: 12pt; font-family: Calibri, sans-serif; background-color: transparent; font-variant-numeric: normal; font-variant-east-asian: normal; font-variant-alternates: normal; font-variant-position: normal; font-variant-emoji: normal; vertical-align: baseline; white-space-collapse: preserve;&quot;&gt;MOVIMENTOS&lt;/span&gt;&lt;/span&gt;" style="whiteSpace=wrap;html=1;align=center;" parent="1" vertex="1">
          <mxGeometry x="580" y="310" width="100" height="40" as="geometry" />
        </mxCell>
        <mxCell id="59IRY9et53XvcOAsyTQL-5" value="&lt;span id=&quot;docs-internal-guid-b920871b-7fff-cbc4-225b-ba608877dcde&quot;&gt;&lt;span style=&quot;font-size: 12pt; font-family: Calibri, sans-serif; background-color: transparent; font-variant-numeric: normal; font-variant-east-asian: normal; font-variant-alternates: normal; font-variant-position: normal; font-variant-emoji: normal; text-decoration-skip-ink: none; vertical-align: baseline; white-space-collapse: preserve;&quot;&gt;SwiftCode&lt;/span&gt;&lt;/span&gt;" style="ellipse;whiteSpace=wrap;html=1;align=center;fontStyle=4;" parent="1" vertex="1">
          <mxGeometry x="30" y="120" width="100" height="40" as="geometry" />
        </mxCell>
        <mxCell id="59IRY9et53XvcOAsyTQL-6" value="&lt;span id=&quot;docs-internal-guid-8dbcbf9c-7fff-11c3-18db-ec2c6ba12a83&quot;&gt;&lt;span style=&quot;font-size: 12pt; font-family: Calibri, sans-serif; background-color: transparent; font-variant-numeric: normal; font-variant-east-asian: normal; font-variant-alternates: normal; font-variant-position: normal; font-variant-emoji: normal; vertical-align: baseline; white-space-collapse: preserve;&quot;&gt;Nome&lt;/span&gt;&lt;/span&gt;" style="ellipse;whiteSpace=wrap;html=1;align=center;" parent="1" vertex="1">
          <mxGeometry x="140" y="80" width="100" height="40" as="geometry" />
        </mxCell>
        <mxCell id="59IRY9et53XvcOAsyTQL-20" style="edgeStyle=none;shape=connector;rounded=0;orthogonalLoop=1;jettySize=auto;html=1;entryX=1;entryY=1;entryDx=0;entryDy=0;strokeColor=default;align=center;verticalAlign=middle;fontFamily=Helvetica;fontSize=11;fontColor=default;labelBackgroundColor=default;endArrow=none;endFill=0;" parent="1" source="59IRY9et53XvcOAsyTQL-8" target="59IRY9et53XvcOAsyTQL-9" edge="1">
          <mxGeometry relative="1" as="geometry" />
        </mxCell>
        <mxCell id="59IRY9et53XvcOAsyTQL-21" style="edgeStyle=none;shape=connector;rounded=0;orthogonalLoop=1;jettySize=auto;html=1;strokeColor=default;align=center;verticalAlign=middle;fontFamily=Helvetica;fontSize=11;fontColor=default;labelBackgroundColor=default;endArrow=none;endFill=0;" parent="1" source="59IRY9et53XvcOAsyTQL-8" target="59IRY9et53XvcOAsyTQL-10" edge="1">
          <mxGeometry relative="1" as="geometry" />
        </mxCell>
        <mxCell id="59IRY9et53XvcOAsyTQL-24" style="edgeStyle=none;shape=connector;rounded=0;orthogonalLoop=1;jettySize=auto;html=1;strokeColor=default;align=center;verticalAlign=middle;fontFamily=Helvetica;fontSize=11;fontColor=default;labelBackgroundColor=default;endArrow=none;endFill=0;" parent="1" source="59IRY9et53XvcOAsyTQL-8" target="59IRY9et53XvcOAsyTQL-12" edge="1">
          <mxGeometry relative="1" as="geometry" />
        </mxCell>
        <mxCell id="59IRY9et53XvcOAsyTQL-25" style="edgeStyle=none;shape=connector;rounded=0;orthogonalLoop=1;jettySize=auto;html=1;entryX=0;entryY=1;entryDx=0;entryDy=0;strokeColor=default;align=center;verticalAlign=middle;fontFamily=Helvetica;fontSize=11;fontColor=default;labelBackgroundColor=default;endArrow=none;endFill=0;" parent="1" source="59IRY9et53XvcOAsyTQL-8" target="59IRY9et53XvcOAsyTQL-13" edge="1">
          <mxGeometry relative="1" as="geometry" />
        </mxCell>
        <mxCell id="59IRY9et53XvcOAsyTQL-8" value="&lt;span id=&quot;docs-internal-guid-50da9faa-7fff-66b5-dc01-4913c2e8268b&quot;&gt;&lt;span style=&quot;font-size: 12pt; font-family: Calibri, sans-serif; background-color: transparent; font-variant-numeric: normal; font-variant-east-asian: normal; font-variant-alternates: normal; font-variant-position: normal; font-variant-emoji: normal; vertical-align: baseline; white-space-collapse: preserve;&quot;&gt;Morada&lt;/span&gt;&lt;/span&gt;" style="ellipse;whiteSpace=wrap;html=1;align=center;" parent="1" vertex="1">
          <mxGeometry x="280" y="60" width="100" height="40" as="geometry" />
        </mxCell>
        <mxCell id="59IRY9et53XvcOAsyTQL-9" value="&lt;span id=&quot;docs-internal-guid-5283b19c-7fff-80e7-e4db-060b09bd453b&quot;&gt;&lt;span style=&quot;font-size: 12pt; font-family: Calibri, sans-serif; background-color: transparent; font-variant-numeric: normal; font-variant-east-asian: normal; font-variant-alternates: normal; font-variant-position: normal; font-variant-emoji: normal; vertical-align: baseline; white-space-collapse: preserve;&quot;&gt;Rua&lt;/span&gt;&lt;/span&gt;" style="ellipse;whiteSpace=wrap;html=1;align=center;" parent="1" vertex="1">
          <mxGeometry x="120" y="-30" width="100" height="40" as="geometry" />
        </mxCell>
        <mxCell id="59IRY9et53XvcOAsyTQL-10" value="&lt;span id=&quot;docs-internal-guid-7bc3e5fb-7fff-ad05-edbd-930cfe56bb56&quot;&gt;&lt;span style=&quot;font-size: 12pt; font-family: Calibri, sans-serif; background-color: transparent; font-variant-numeric: normal; font-variant-east-asian: normal; font-variant-alternates: normal; font-variant-position: normal; font-variant-emoji: normal; vertical-align: baseline; white-space-collapse: preserve;&quot;&gt;NumPorta&lt;/span&gt;&lt;/span&gt;" style="ellipse;whiteSpace=wrap;html=1;align=center;" parent="1" vertex="1">
          <mxGeometry x="210" y="-90" width="100" height="40" as="geometry" />
        </mxCell>
        <mxCell id="59IRY9et53XvcOAsyTQL-11" value="&lt;span id=&quot;docs-internal-guid-c058b184-7fff-d3f3-a75c-fe97f1e5b9b9&quot;&gt;&lt;span style=&quot;font-size: 12pt; font-family: Calibri, sans-serif; background-color: transparent; font-variant-numeric: normal; font-variant-east-asian: normal; font-variant-alternates: normal; font-variant-position: normal; font-variant-emoji: normal; vertical-align: baseline; white-space-collapse: preserve;&quot;&gt;CodPostal&lt;/span&gt;&lt;/span&gt;" style="ellipse;whiteSpace=wrap;html=1;align=center;" parent="1" vertex="1">
          <mxGeometry x="320" y="-90" width="100" height="40" as="geometry" />
        </mxCell>
        <mxCell id="59IRY9et53XvcOAsyTQL-12" value="&lt;span id=&quot;docs-internal-guid-c68ea3c3-7fff-f804-a1c4-359921f6dab5&quot;&gt;&lt;span style=&quot;font-size: 12pt; font-family: Calibri, sans-serif; background-color: transparent; font-variant-numeric: normal; font-variant-east-asian: normal; font-variant-alternates: normal; font-variant-position: normal; font-variant-emoji: normal; vertical-align: baseline; white-space-collapse: preserve;&quot;&gt;Localidade&lt;/span&gt;&lt;/span&gt;" style="ellipse;whiteSpace=wrap;html=1;align=center;" parent="1" vertex="1">
          <mxGeometry x="430" y="-80" width="100" height="40" as="geometry" />
        </mxCell>
        <mxCell id="59IRY9et53XvcOAsyTQL-13" value="&lt;span id=&quot;docs-internal-guid-d58555ec-7fff-19f8-fed7-13cf4631f28c&quot;&gt;&lt;span style=&quot;font-size: 12pt; font-family: Calibri, sans-serif; background-color: transparent; font-variant-numeric: normal; font-variant-east-asian: normal; font-variant-alternates: normal; font-variant-position: normal; font-variant-emoji: normal; vertical-align: baseline; white-space-collapse: preserve;&quot;&gt;Pais&lt;/span&gt;&lt;/span&gt;" style="ellipse;whiteSpace=wrap;html=1;align=center;" parent="1" vertex="1">
          <mxGeometry x="500" y="-30" width="100" height="40" as="geometry" />
        </mxCell>
        <mxCell id="59IRY9et53XvcOAsyTQL-14" value="&lt;span id=&quot;docs-internal-guid-484260dd-7fff-4463-595c-d4899e16f2f7&quot;&gt;&lt;span style=&quot;font-size: 12pt; font-family: Calibri, sans-serif; background-color: transparent; font-variant-numeric: normal; font-variant-east-asian: normal; font-variant-alternates: normal; font-variant-position: normal; font-variant-emoji: normal; vertical-align: baseline; white-space-collapse: preserve;&quot;&gt;CapitalSocial&lt;/span&gt;&lt;/span&gt;" style="ellipse;whiteSpace=wrap;html=1;align=center;" parent="1" vertex="1">
          <mxGeometry x="440" y="90" width="100" height="40" as="geometry" />
        </mxCell>
        <mxCell id="59IRY9et53XvcOAsyTQL-18" style="edgeStyle=none;shape=connector;rounded=0;orthogonalLoop=1;jettySize=auto;html=1;entryX=0.69;entryY=0.95;entryDx=0;entryDy=0;entryPerimeter=0;strokeColor=default;align=center;verticalAlign=middle;fontFamily=Helvetica;fontSize=11;fontColor=default;labelBackgroundColor=default;endArrow=none;endFill=0;" parent="1" source="59IRY9et53XvcOAsyTQL-1" target="59IRY9et53XvcOAsyTQL-6" edge="1">
          <mxGeometry relative="1" as="geometry" />
        </mxCell>
        <mxCell id="59IRY9et53XvcOAsyTQL-19" style="edgeStyle=none;shape=connector;rounded=0;orthogonalLoop=1;jettySize=auto;html=1;entryX=0.72;entryY=0.975;entryDx=0;entryDy=0;entryPerimeter=0;strokeColor=default;align=center;verticalAlign=middle;fontFamily=Helvetica;fontSize=11;fontColor=default;labelBackgroundColor=default;endArrow=none;endFill=0;" parent="1" source="59IRY9et53XvcOAsyTQL-1" target="59IRY9et53XvcOAsyTQL-5" edge="1">
          <mxGeometry relative="1" as="geometry" />
        </mxCell>
        <mxCell id="59IRY9et53XvcOAsyTQL-23" style="edgeStyle=none;shape=connector;rounded=0;orthogonalLoop=1;jettySize=auto;html=1;entryX=0.42;entryY=1;entryDx=0;entryDy=0;entryPerimeter=0;strokeColor=default;align=center;verticalAlign=middle;fontFamily=Helvetica;fontSize=11;fontColor=default;labelBackgroundColor=default;endArrow=none;endFill=0;" parent="1" source="59IRY9et53XvcOAsyTQL-8" target="59IRY9et53XvcOAsyTQL-11" edge="1">
          <mxGeometry relative="1" as="geometry" />
        </mxCell>
        <mxCell id="59IRY9et53XvcOAsyTQL-26" value="&lt;span id=&quot;docs-internal-guid-014225e5-7fff-05a8-8a12-3c5ea990b1a2&quot;&gt;&lt;span style=&quot;font-size: 12pt; font-family: Calibri, sans-serif; background-color: transparent; font-variant-numeric: normal; font-variant-east-asian: normal; font-variant-alternates: normal; font-variant-position: normal; font-variant-emoji: normal; text-decoration-skip-ink: none; vertical-align: baseline; white-space-collapse: preserve;&quot;&gt;NumCliente&lt;/span&gt;&lt;/span&gt;" style="ellipse;whiteSpace=wrap;html=1;align=center;fontStyle=4;fontFamily=Helvetica;fontSize=11;fontColor=default;labelBackgroundColor=default;" parent="1" vertex="1">
          <mxGeometry x="-120" y="300" width="100" height="40" as="geometry" />
        </mxCell>
        <mxCell id="59IRY9et53XvcOAsyTQL-27" value="&lt;span id=&quot;docs-internal-guid-f0e9df0b-7fff-3c02-c8bc-a8ba6d33dfe7&quot;&gt;&lt;span style=&quot;font-size: 12pt; font-family: Calibri, sans-serif; background-color: transparent; font-variant-numeric: normal; font-variant-east-asian: normal; font-variant-alternates: normal; font-variant-position: normal; font-variant-emoji: normal; vertical-align: baseline; white-space-collapse: preserve;&quot;&gt;Nome&lt;/span&gt;&lt;/span&gt;" style="ellipse;whiteSpace=wrap;html=1;align=center;fontFamily=Helvetica;fontSize=11;fontColor=default;labelBackgroundColor=default;" parent="1" vertex="1">
          <mxGeometry x="-200" y="340" width="100" height="40" as="geometry" />
        </mxCell>
        <mxCell id="59IRY9et53XvcOAsyTQL-28" value="&lt;span id=&quot;docs-internal-guid-c1414266-7fff-5875-505b-be4e4a157786&quot;&gt;&lt;span style=&quot;font-size: 12pt; font-family: Calibri, sans-serif; background-color: transparent; font-variant-numeric: normal; font-variant-east-asian: normal; font-variant-alternates: normal; font-variant-position: normal; font-variant-emoji: normal; vertical-align: baseline; white-space-collapse: preserve;&quot;&gt;DataNasc&lt;/span&gt;&lt;/span&gt;" style="ellipse;whiteSpace=wrap;html=1;align=center;fontFamily=Helvetica;fontSize=11;fontColor=default;labelBackgroundColor=default;" parent="1" vertex="1">
          <mxGeometry x="-220" y="390" width="100" height="40" as="geometry" />
        </mxCell>
        <mxCell id="59IRY9et53XvcOAsyTQL-29" value="&lt;span id=&quot;docs-internal-guid-004bd76b-7fff-7322-e45c-8d8f839ee37e&quot;&gt;&lt;span style=&quot;font-size: 12pt; font-family: Calibri, sans-serif; background-color: transparent; font-variant-numeric: normal; font-variant-east-asian: normal; font-variant-alternates: normal; font-variant-position: normal; font-variant-emoji: normal; vertical-align: baseline; white-space-collapse: preserve;&quot;&gt;GÃ©nero&lt;/span&gt;&lt;/span&gt;" style="ellipse;whiteSpace=wrap;html=1;align=center;fontFamily=Helvetica;fontSize=11;fontColor=default;labelBackgroundColor=default;" parent="1" vertex="1">
          <mxGeometry x="-200" y="440" width="100" height="40" as="geometry" />
        </mxCell>
        <mxCell id="59IRY9et53XvcOAsyTQL-30" value="&lt;span id=&quot;docs-internal-guid-04b3b104-7fff-9fc2-ae88-24d2b9a784c0&quot;&gt;&lt;span style=&quot;font-size: 12pt; font-family: Calibri, sans-serif; background-color: transparent; font-variant-numeric: normal; font-variant-east-asian: normal; font-variant-alternates: normal; font-variant-position: normal; font-variant-emoji: normal; vertical-align: baseline; white-space-collapse: preserve;&quot;&gt;VencimentoAnual&lt;/span&gt;&lt;/span&gt;" style="ellipse;whiteSpace=wrap;html=1;align=center;fontFamily=Helvetica;fontSize=11;fontColor=default;labelBackgroundColor=default;" parent="1" vertex="1">
          <mxGeometry x="-150" y="500" width="100" height="40" as="geometry" />
        </mxCell>
        <mxCell id="59IRY9et53XvcOAsyTQL-32" style="edgeStyle=none;shape=connector;rounded=0;orthogonalLoop=1;jettySize=auto;html=1;entryX=0.95;entryY=0.675;entryDx=0;entryDy=0;entryPerimeter=0;strokeColor=default;align=center;verticalAlign=middle;fontFamily=Helvetica;fontSize=11;fontColor=default;labelBackgroundColor=default;endArrow=none;endFill=0;" parent="1" source="59IRY9et53XvcOAsyTQL-2" target="59IRY9et53XvcOAsyTQL-27" edge="1">
          <mxGeometry relative="1" as="geometry" />
        </mxCell>
        <mxCell id="59IRY9et53XvcOAsyTQL-36" value="&lt;span id=&quot;docs-internal-guid-37fe3c08-7fff-cb43-29bf-59b8a303d83b&quot;&gt;&lt;span style=&quot;font-size: 12pt; font-family: Calibri, sans-serif; background-color: transparent; font-variant-numeric: normal; font-variant-east-asian: normal; font-variant-alternates: normal; font-variant-position: normal; font-variant-emoji: normal; text-decoration-skip-ink: none; vertical-align: baseline; white-space-collapse: preserve;&quot;&gt;NumConta&lt;/span&gt;&lt;/span&gt;" style="ellipse;whiteSpace=wrap;html=1;align=center;fontStyle=4;fontFamily=Helvetica;fontSize=11;fontColor=default;labelBackgroundColor=default;" parent="1" vertex="1">
          <mxGeometry x="120" y="720" width="100" height="40" as="geometry" />
        </mxCell>
        <mxCell id="59IRY9et53XvcOAsyTQL-37" value="&lt;span id=&quot;docs-internal-guid-5cf09b29-7fff-ec81-455b-126152505a14&quot;&gt;&lt;span style=&quot;font-size: 12pt; font-family: Calibri, sans-serif; background-color: transparent; font-variant-numeric: normal; font-variant-east-asian: normal; font-variant-alternates: normal; font-variant-position: normal; font-variant-emoji: normal; vertical-align: baseline; white-space-collapse: preserve;&quot;&gt;DataCriaÃ§Ã£o&lt;/span&gt;&lt;/span&gt;" style="ellipse;whiteSpace=wrap;html=1;align=center;fontFamily=Helvetica;fontSize=11;fontColor=default;labelBackgroundColor=default;" parent="1" vertex="1">
          <mxGeometry x="410" y="730" width="100" height="40" as="geometry" />
        </mxCell>
        <mxCell id="59IRY9et53XvcOAsyTQL-38" value="&lt;span id=&quot;docs-internal-guid-65e8640d-7fff-0932-4376-f9341a9f3c98&quot;&gt;&lt;span style=&quot;font-size: 12pt; font-family: Calibri, sans-serif; background-color: transparent; font-variant-numeric: normal; font-variant-east-asian: normal; font-variant-alternates: normal; font-variant-position: normal; font-variant-emoji: normal; vertical-align: baseline; white-space-collapse: preserve;&quot;&gt;NomeConta&lt;/span&gt;&lt;/span&gt;" style="ellipse;whiteSpace=wrap;html=1;align=center;fontFamily=Helvetica;fontSize=11;fontColor=default;labelBackgroundColor=default;" parent="1" vertex="1">
          <mxGeometry x="320" y="770" width="100" height="40" as="geometry" />
        </mxCell>
        <mxCell id="59IRY9et53XvcOAsyTQL-39" value="&lt;span id=&quot;docs-internal-guid-a45d9f75-7fff-20e0-1203-c78a976688a7&quot;&gt;&lt;span style=&quot;font-size: 12pt; font-family: Calibri, sans-serif; background-color: transparent; font-variant-numeric: normal; font-variant-east-asian: normal; font-variant-alternates: normal; font-variant-position: normal; font-variant-emoji: normal; vertical-align: baseline; white-space-collapse: preserve;&quot;&gt;Saldo&lt;/span&gt;&lt;/span&gt;" style="ellipse;whiteSpace=wrap;html=1;align=center;fontFamily=Helvetica;fontSize=11;fontColor=default;labelBackgroundColor=default;" parent="1" vertex="1">
          <mxGeometry x="190" y="760" width="100" height="40" as="geometry" />
        </mxCell>
        <mxCell id="59IRY9et53XvcOAsyTQL-45" value="&lt;span id=&quot;docs-internal-guid-9eb0846a-7fff-0213-b01d-6e0a39a8324d&quot;&gt;&lt;span style=&quot;font-size: 12pt; font-family: Calibri, sans-serif; background-color: transparent; font-variant-numeric: normal; font-variant-east-asian: normal; font-variant-alternates: normal; font-variant-position: normal; font-variant-emoji: normal; text-decoration-skip-ink: none; vertical-align: baseline; white-space-collapse: preserve;&quot;&gt;NumMov&lt;/span&gt;&lt;/span&gt;" style="ellipse;whiteSpace=wrap;html=1;align=center;fontStyle=4;fontFamily=Helvetica;fontSize=11;fontColor=default;labelBackgroundColor=default;" parent="1" vertex="1">
          <mxGeometry x="790" y="350" width="100" height="40" as="geometry" />
        </mxCell>
        <mxCell id="59IRY9et53XvcOAsyTQL-46" value="&lt;span id=&quot;docs-internal-guid-c0264e8b-7fff-43e3-9a33-edd287fe6ad9&quot;&gt;&lt;span style=&quot;font-size: 12pt; font-family: Calibri, sans-serif; background-color: transparent; font-variant-numeric: normal; font-variant-east-asian: normal; font-variant-alternates: normal; font-variant-position: normal; font-variant-emoji: normal; vertical-align: baseline; white-space-collapse: preserve;&quot;&gt;Data&lt;/span&gt;&lt;/span&gt;" style="ellipse;whiteSpace=wrap;html=1;align=center;fontFamily=Helvetica;fontSize=11;fontColor=default;labelBackgroundColor=default;" parent="1" vertex="1">
          <mxGeometry x="800" y="280" width="100" height="40" as="geometry" />
        </mxCell>
        <mxCell id="59IRY9et53XvcOAsyTQL-47" value="&lt;span id=&quot;docs-internal-guid-47484df8-7fff-5ed5-2717-a1c2c44da58c&quot;&gt;&lt;span style=&quot;font-size: 12pt; font-family: Calibri, sans-serif; background-color: transparent; font-variant-numeric: normal; font-variant-east-asian: normal; font-variant-alternates: normal; font-variant-position: normal; font-variant-emoji: normal; vertical-align: baseline; white-space-collapse: preserve;&quot;&gt;TipoMov&lt;/span&gt;&lt;/span&gt;" style="ellipse;whiteSpace=wrap;html=1;align=center;fontFamily=Helvetica;fontSize=11;fontColor=default;labelBackgroundColor=default;" parent="1" vertex="1">
          <mxGeometry x="760" y="220" width="100" height="40" as="geometry" />
        </mxCell>
        <mxCell id="59IRY9et53XvcOAsyTQL-48" value="&lt;span id=&quot;docs-internal-guid-4157ca06-7fff-8bc3-6c15-2af6ac1e23bd&quot;&gt;&lt;span style=&quot;font-size: 12pt; font-family: Calibri, sans-serif; background-color: transparent; font-variant-numeric: normal; font-variant-east-asian: normal; font-variant-alternates: normal; font-variant-position: normal; font-variant-emoji: normal; vertical-align: baseline; white-space-collapse: preserve;&quot;&gt;Valor&lt;/span&gt;&lt;/span&gt;" style="ellipse;whiteSpace=wrap;html=1;align=center;fontFamily=Helvetica;fontSize=11;fontColor=default;labelBackgroundColor=default;" parent="1" vertex="1">
          <mxGeometry x="690" y="170" width="100" height="40" as="geometry" />
        </mxCell>
        <mxCell id="59IRY9et53XvcOAsyTQL-53" value="&lt;span id=&quot;docs-internal-guid-2adc87cc-7fff-df42-13d4-8e2da55ace7e&quot;&gt;&lt;span style=&quot;font-size: 12pt; font-family: Calibri, sans-serif; background-color: transparent; font-variant-numeric: normal; font-variant-east-asian: normal; font-variant-alternates: normal; font-variant-position: normal; font-variant-emoji: normal; vertical-align: baseline; white-space-collapse: preserve;&quot;&gt;PERTENCE_A&lt;/span&gt;&lt;/span&gt;" style="shape=rhombus;perimeter=rhombusPerimeter;whiteSpace=wrap;html=1;align=center;fontFamily=Helvetica;fontSize=11;fontColor=default;labelBackgroundColor=default;" parent="1" vertex="1">
          <mxGeometry x="110" y="290" width="120" height="60" as="geometry" />
        </mxCell>
        <mxCell id="5yBy5ubpR-fuYYYy7FqI-1" value="&lt;span id=&quot;docs-internal-guid-adc0aac2-7fff-4d63-2736-cfba417d1cbf&quot;&gt;&lt;span style=&quot;font-size: 12pt; font-family: Calibri, sans-serif; background-color: transparent; font-variant-numeric: normal; font-variant-east-asian: normal; font-variant-alternates: normal; font-variant-position: normal; font-variant-emoji: normal; vertical-align: baseline; white-space-collapse: preserve;&quot;&gt;CONTA_DE&lt;/span&gt;&lt;/span&gt;" style="shape=rhombus;perimeter=rhombusPerimeter;whiteSpace=wrap;html=1;align=center;fontFamily=Helvetica;fontSize=11;fontColor=default;labelBackgroundColor=default;" vertex="1" parent="1">
          <mxGeometry x="60" y="540" width="120" height="60" as="geometry" />
        </mxCell>
        <mxCell id="5yBy5ubpR-fuYYYy7FqI-6" value="&lt;span id=&quot;docs-internal-guid-cd2579c9-7fff-7d25-82be-13cf69631502&quot;&gt;&lt;span style=&quot;font-size: 12pt; font-family: Calibri, sans-serif; background-color: transparent; font-variant-numeric: normal; font-variant-east-asian: normal; font-variant-alternates: normal; font-variant-position: normal; font-variant-emoji: normal; vertical-align: baseline; white-space-collapse: preserve;&quot;&gt;MOVIMENTOS_DE&lt;/span&gt;&lt;/span&gt;" style="shape=rhombus;perimeter=rhombusPerimeter;whiteSpace=wrap;html=1;align=center;fontFamily=Helvetica;fontSize=11;fontColor=default;labelBackgroundColor=default;" vertex="1" parent="1">
          <mxGeometry x="470" y="480" width="120" height="60" as="geometry" />
        </mxCell>
      </root>
    </mxGraphModel>
  </diagram>
</mxfile>
